<svg version="1.1" id="Layer_1" xmlns="http://www.w3.org/2000/svg" xmlns:xlink="http://www.w3.org/1999/xlink" x="0px" y="0px"
	 width="100%" viewBox="0 0 2164 727" enable-background="new 0 0 2164 727" xml:space="preserve">
<path fill="#FEFEFE" opacity="1.000000" stroke="none" 
	d="
M1306.690186,196.404114 
	C1306.655884,188.511124 1306.298218,188.080383 1298.705811,188.072189 
	C1276.921265,188.048676 1255.136475,188.046417 1233.352051,188.095917 
	C1223.552856,188.118179 1213.753784,188.283371 1203.076294,188.213242 
	C1200.408447,188.324844 1197.740723,188.436447 1194.476074,188.410583 
	C1193.761108,189.288376 1193.046143,190.166168 1191.977539,191.727386 
	C1190.317871,199.020432 1191.825195,201.283249 1198.853394,201.995667 
	C1200.509033,202.163498 1202.178711,202.197830 1203.832397,202.379883 
	C1216.171021,203.738144 1221.554810,207.936935 1222.919922,217.720352 
	C1223.515625,221.988968 1223.661499,226.348862 1223.664062,230.667511 
	C1223.711426,307.300842 1223.717285,383.934204 1223.680542,460.567566 
	C1223.678345,465.213806 1223.483032,469.886261 1222.966919,474.500549 
	C1221.890137,484.128418 1217.813721,488.364563 1208.269897,490.049194 
	C1204.180298,490.771027 1200.014771,491.071075 1195.934082,491.832733 
	C1191.243530,492.708160 1191.328735,496.647858 1191.498779,500.079620 
	C1191.654297,503.217926 1192.854004,505.646057 1196.996948,505.630829 
	C1230.981445,505.505981 1264.966797,505.574463 1298.951782,505.516968 
	C1305.805786,505.505371 1306.818604,503.975830 1306.470337,497.226868 
	C1306.165405,491.322693 1301.868652,491.509613 1298.018066,491.100830 
	C1282.742310,489.479065 1276.203979,487.949371 1274.821045,468.045044 
	C1274.792847,387.706451 1274.764648,307.367859 1275.070923,226.207520 
	C1275.098022,225.379211 1275.131470,224.551071 1275.151123,223.722580 
	C1275.471802,210.270767 1279.729492,205.263641 1292.888306,202.930878 
	C1296.597778,202.273270 1300.322510,201.701248 1304.668091,201.040253 
	C1305.038818,200.350723 1305.409546,199.661209 1306.119141,198.385208 
	C1306.198975,197.949234 1306.278687,197.513260 1306.690186,196.404114 
M270.361938,197.098694 
	C270.066071,194.656052 269.770172,192.213394 269.128387,188.997726 
	C267.392090,188.677185 265.658386,188.097855 263.919037,188.080414 
	C255.934814,188.000443 247.949020,188.093979 239.963776,188.095627 
	C185.231094,188.106934 130.498383,188.088547 75.765915,188.197540 
	C73.551514,188.201950 71.339470,189.386993 68.706093,190.708664 
	C66.744667,198.665863 68.497902,201.283920 76.335571,202.234070 
	C79.623016,202.632599 82.902397,203.110352 86.173752,203.626297 
	C93.804230,204.829758 98.347595,209.185669 98.661209,216.939560 
	C94.315109,216.570312 93.958794,219.237213 93.960861,222.659134 
	C94.010719,305.296631 94.024384,387.934204 93.928162,470.571625 
	C93.923340,474.713165 95.307709,476.478363 99.359085,476.875610 
	C98.349785,484.647491 93.320450,488.432678 86.159256,489.843994 
	C81.761108,490.710754 77.275841,491.126495 72.842712,491.827179 
	C68.096046,492.577362 68.068993,496.345764 68.139702,499.836914 
	C68.211281,503.370941 69.639458,505.861420 73.891701,505.627563 
	C77.713478,505.417358 81.554543,505.549561 85.387115,505.545532 
	C116.880943,505.512451 148.374878,505.436768 179.868469,505.509918 
	C183.839584,505.519135 186.570679,504.541565 186.432770,500.148407 
	C186.317444,496.474091 186.959229,492.190338 181.167282,491.756104 
	C176.700562,491.421234 172.254684,490.675018 167.831207,489.924927 
	C158.912735,488.412689 154.099075,483.271942 153.012848,474.259399 
	C152.694168,471.615234 152.245850,468.959808 152.240601,466.308777 
	C152.170578,430.982422 152.188950,395.655884 152.120270,360.329529 
	C152.113068,356.627808 153.602234,354.604370 157.366928,354.630463 
	C168.860092,354.710114 180.375534,354.435608 191.839767,355.068939 
	C204.702667,355.779541 211.569977,361.595154 215.173172,373.991791 
	C216.794525,379.570038 217.730331,385.346100 219.019562,391.022766 
	C220.088455,395.729401 222.329376,396.888031 228.544479,396.377594 
	C232.743713,396.032684 234.186539,393.791321 234.172989,389.759735 
	C234.076126,360.932495 234.050491,332.104858 234.105408,303.277527 
	C234.113098,299.240234 233.206314,296.417572 228.559647,296.091797 
	C222.650055,295.677490 220.198380,297.306732 219.036697,302.325348 
	C217.723999,307.996185 216.499329,313.712646 214.727905,319.246521 
	C211.601730,329.012604 204.574615,334.496643 194.428223,334.985901 
	C182.461548,335.562927 170.452011,335.199097 158.473633,335.610077 
	C153.446106,335.782593 151.974670,334.113770 152.006912,329.057465 
	C152.232132,293.732269 152.136887,258.405090 152.192337,223.078644 
	C152.196762,220.258881 152.439194,217.424408 152.785385,214.623260 
	C153.641754,207.694183 154.713470,206.667984 161.579636,206.641937 
	C176.575897,206.585037 191.577225,206.413483 206.568100,206.710999 
	C231.689240,207.209564 247.380661,219.334534 254.523270,243.378113 
	C255.849564,247.842682 256.871216,252.396835 258.108002,256.889130 
	C259.271210,261.114166 262.719055,261.224274 266.140106,261.042023 
	C269.289764,260.874268 272.202179,260.172668 272.457245,255.282562 
	C272.020966,244.838852 271.584686,234.395157 271.300598,223.107498 
	C271.196930,221.404266 271.093262,219.701019 271.176971,217.245651 
	C270.852173,210.809250 270.527405,204.372864 270.361938,197.098694 
M326.685272,227.862198 
	C326.767975,229.569214 326.850708,231.276230 326.732147,233.807236 
	C326.796143,235.212753 326.860107,236.618286 326.670624,238.928574 
	C326.670441,281.980316 326.657715,325.032043 326.681763,368.083771 
	C326.686005,375.718262 326.843231,383.352722 326.757843,391.501038 
	C326.816071,391.671997 326.874329,391.842957 326.682526,392.737335 
	C326.769318,393.487823 326.856140,394.238312 326.746674,395.732300 
	C326.814087,396.492401 326.881500,397.252533 326.704590,398.659149 
	C326.788757,399.104187 326.872925,399.549194 326.801514,400.503815 
	C326.871887,400.666870 326.942261,400.829956 326.889465,401.907776 
	C328.470520,413.263214 329.218964,424.810455 331.782745,435.939484 
	C340.855896,475.324341 365.676666,499.054810 405.172302,507.289825 
	C424.760101,511.373993 444.478607,511.633026 464.233307,508.203583 
	C493.314545,503.155029 515.378845,488.212250 529.222229,461.904510 
	C540.474426,440.521057 544.768066,417.370575 544.984009,393.481964 
	C545.292847,359.321381 544.950195,325.155426 545.088318,290.992584 
	C545.177856,268.845215 545.340759,246.690399 546.021179,224.555847 
	C546.455872,210.416672 551.925537,204.893143 565.775024,202.711853 
	C568.241882,202.323318 570.725098,201.884308 573.211426,201.805389 
	C578.588379,201.634674 578.613159,197.706650 578.680115,194.042419 
	C578.751160,190.155807 577.094421,188.059387 572.629883,188.088287 
	C546.633484,188.256577 520.635376,188.251205 494.638519,188.148651 
	C490.593658,188.132690 488.760437,189.725204 488.679474,193.639923 
	C488.596924,197.629562 488.536835,201.427505 494.079407,201.926163 
	C498.378418,202.312943 502.644287,203.126511 506.905548,203.862350 
	C515.082703,205.274414 519.980286,210.183975 521.444031,218.272781 
	C522.386719,223.482330 522.856018,228.777557 523.360535,234.857697 
	C523.424133,239.676514 523.539612,244.495270 523.543396,249.314133 
	C523.581970,299.182800 523.602417,349.051453 523.208374,399.614288 
	C520.927185,412.171326 519.758545,425.058563 516.148499,437.221161 
	C506.741028,468.915741 482.744263,487.641937 448.149811,487.033722 
	C419.200043,486.524811 397.402527,471.780151 387.069977,444.773315 
	C379.746826,425.632324 378.069885,405.592255 378.021271,385.373688 
	C377.899567,334.734955 377.962158,284.095673 378.027191,233.456711 
	C378.032928,228.982300 378.416229,224.487289 378.938843,220.038818 
	C380.182251,209.455307 384.276306,205.133850 394.797546,203.110062 
	C397.732422,202.545532 400.827087,202.615021 403.655823,201.757904 
	C405.904236,201.076614 408.762024,199.912857 409.741058,198.096451 
	C411.378632,195.058456 411.357941,191.404327 407.436005,188.237183 
	C383.554169,188.181717 359.672302,188.092682 335.790466,188.088074 
	C326.845245,188.086334 317.899963,188.281082 308.067596,188.207596 
	C304.338501,188.380630 300.609436,188.553665 296.277496,188.730133 
	C295.910217,189.161896 295.542969,189.593658 294.711395,190.697449 
	C292.353455,198.453842 294.216644,201.360275 302.130005,202.217865 
	C303.774994,202.396133 305.434052,202.442276 307.080627,202.608734 
	C316.341553,203.544968 323.684998,207.026917 325.974152,217.834320 
	C326.284119,220.900009 326.594055,223.965683 326.685272,227.862198 
M907.072754,236.948730 
	C907.086609,293.333252 907.088867,349.717743 907.120789,406.102264 
	C907.131897,425.724396 907.216370,445.346466 906.916138,465.708984 
	C906.549438,468.680145 906.310059,471.673645 905.792664,474.618317 
	C904.132507,484.065338 899.973145,488.348846 890.670044,490.059082 
	C886.589722,490.809204 882.453979,491.281891 878.329346,491.759979 
	C873.076294,492.368835 873.363708,496.362122 873.318909,499.994415 
	C873.272827,503.729919 874.889832,505.646271 879.099915,505.626434 
	C904.923828,505.504608 930.749390,505.501617 956.572571,505.696350 
	C961.137451,505.730774 962.623108,503.354401 962.627258,499.692596 
	C962.631287,496.133362 962.713501,492.247589 957.373352,491.699738 
	C951.933655,491.141663 946.523010,490.150970 941.156494,489.068237 
	C934.924622,487.810883 931.205505,483.675842 930.093872,477.587097 
	C929.111633,472.207153 928.257263,466.708435 928.248474,461.260712 
	C928.137085,391.783783 928.186829,322.306580 928.211792,252.829468 
	C928.212219,251.655136 928.413574,250.480881 928.638428,248.025848 
	C938.489380,262.411469 947.547668,275.751556 956.718750,289.013550 
	C1005.577881,359.667572 1054.542358,430.249084 1103.203003,501.039429 
	C1107.294189,506.991150 1111.850220,509.070251 1118.583740,508.386230 
	C1123.323242,507.904785 1126.492676,506.083191 1127.421387,500.259399 
	C1127.454224,491.937256 1127.513306,483.615112 1127.515991,475.292969 
	C1127.542358,394.874054 1127.559204,314.455139 1127.846069,233.315018 
	C1128.043579,230.158905 1128.205078,227.000061 1128.445068,223.847183 
	C1129.485474,210.173553 1134.728882,204.564713 1148.328857,202.602493 
	C1150.798950,202.246109 1153.289062,202.023743 1155.772705,201.765549 
	C1160.860352,201.236603 1160.436890,197.276077 1160.457397,193.875458 
	C1160.478516,190.367874 1159.306641,188.078156 1154.876099,188.107224 
	C1128.556274,188.279831 1102.234375,188.261520 1075.914062,188.125549 
	C1071.479736,188.102646 1069.853516,190.138077 1069.914795,194.104492 
	C1069.971680,197.779205 1069.728760,201.520264 1075.151489,202.000946 
	C1080.770630,202.499054 1086.379761,203.408691 1091.909180,204.547180 
	C1099.145142,206.037064 1103.936890,210.611206 1104.970825,217.913513 
	C1106.155640,226.281738 1107.045532,234.771606 1107.068970,243.211395 
	C1107.222046,298.185089 1107.107178,353.159546 1107.061401,408.133759 
	C1107.060425,409.321838 1106.838867,410.509735 1106.672485,412.176208 
	C1105.879883,411.328308 1105.496826,411.006439 1105.220337,410.610321 
	C1070.357300,360.653992 1035.445312,310.731750 1000.672607,260.712646 
	C985.184570,238.433685 969.996338,215.946442 954.618591,193.590485 
	C952.779907,190.917450 951.216492,188.068954 946.998474,188.097305 
	C922.511169,188.261810 898.022034,188.260895 873.534302,188.142731 
	C869.305908,188.122330 867.825195,190.291870 867.689575,193.869354 
	C867.547791,197.606750 867.583374,201.245300 872.818237,201.933441 
	C878.084045,202.625656 883.399414,203.475983 888.470703,204.998077 
	C898.187500,207.914490 904.428040,214.340256 905.990540,224.657822 
	C906.560425,228.421005 906.808594,232.232925 907.072754,236.948730 
M1766.307739,186.824814 
	C1765.485352,187.070831 1764.662842,187.316849 1763.350342,187.572189 
	C1763.350342,187.572189 1762.989380,187.903931 1762.294312,187.872513 
	C1761.866333,188.030609 1761.438477,188.188705 1760.468994,188.321365 
	C1759.976440,188.537567 1759.483765,188.753769 1758.454590,188.908890 
	C1758.304810,189.008789 1758.155151,189.108673 1757.274170,189.271973 
	C1753.136597,190.982239 1748.998901,192.692505 1744.122437,194.562744 
	C1724.815308,203.021057 1708.752197,215.692734 1695.640503,232.122452 
	C1674.816284,258.216217 1664.160767,288.555786 1659.038940,321.088928 
	C1653.875854,353.884460 1657.937866,385.886993 1668.907959,416.973663 
	C1679.638062,447.380432 1697.871460,472.293640 1725.467773,489.674622 
	C1754.320435,507.846985 1785.989746,513.092102 1819.425049,509.247101 
	C1864.421875,504.072540 1898.408936,481.355896 1919.661499,441.811310 
	C1952.577393,380.565338 1952.042236,317.932465 1922.302368,255.591705 
	C1912.040771,234.081192 1896.758057,216.287430 1875.747437,203.084457 
	C1861.687988,194.068130 1846.433838,188.098816 1829.522339,184.901001 
	C1829.348145,184.937393 1829.173828,184.973770 1828.319092,184.758636 
	C1826.887329,184.562592 1825.455566,184.366562 1823.537842,183.915375 
	C1823.358032,183.949646 1823.178345,183.983917 1822.211304,183.769516 
	C1819.899536,183.524887 1817.593018,183.202789 1815.275269,183.048080 
	C1798.986328,181.960800 1782.804077,182.273193 1766.307739,186.824814 
M603.175293,188.939728 
	C598.760071,196.601562 600.874146,201.137985 609.337219,202.156769 
	C610.164307,202.256348 610.993896,202.335541 611.822388,202.423233 
	C628.519775,204.190765 632.952332,209.054184 633.048279,225.713379 
	C633.052124,226.379883 633.053589,227.046402 633.053711,227.712921 
	C633.068359,306.195160 633.087891,384.677368 633.079529,463.159607 
	C633.079163,466.485413 632.941467,469.821655 632.657715,473.135071 
	C631.754761,483.677032 627.684326,488.119781 617.127808,490.097778 
	C613.539551,490.770111 609.915344,491.266113 606.295105,491.749298 
	C601.219482,492.426727 601.105896,496.243317 601.201477,499.971893 
	C601.295227,503.628265 602.994873,505.633026 607.121887,505.613953 
	C641.612793,505.454254 676.104431,505.389618 710.595642,505.426178 
	C714.525269,505.430359 716.177246,503.591064 716.127380,500.096924 
	C716.076904,496.559448 716.641113,492.452332 711.263489,491.842590 
	C707.299683,491.393158 703.358521,490.726501 699.419006,490.084259 
	C690.500916,488.630310 686.268372,484.526886 684.942139,475.472046 
	C684.269226,470.877838 683.989014,466.189301 683.973267,461.541870 
	C683.890747,437.214386 683.947449,412.886414 683.960999,388.558624 
	C683.965271,380.893829 684.082458,373.227478 683.957703,365.564941 
	C683.895691,361.754883 685.334778,360.056244 689.263672,360.260193 
	C693.252014,360.467255 697.262390,360.208008 701.257874,360.328369 
	C710.219971,360.598267 717.331665,364.222687 721.888977,372.175293 
	C723.956726,375.783569 726.133118,379.357330 727.853577,383.132111 
	C736.486572,402.072296 744.787415,421.166046 753.590088,440.026062 
	C761.401794,456.763031 769.341064,473.463593 777.961731,489.790741 
	C782.701538,498.767761 790.083069,505.454803 801.190552,505.537354 
	C819.184692,505.671112 837.181519,505.452606 855.175720,505.585541 
	C859.223022,505.615448 861.745483,504.301331 861.906677,500.172363 
	C862.058167,496.294708 862.022339,492.297150 856.602844,491.633698 
	C845.103577,490.226044 836.683777,483.777710 831.339783,474.025238 
	C819.501892,452.421844 808.382629,430.426117 796.777954,408.693115 
	C786.006348,388.520203 778.237244,366.405945 760.011536,350.965210 
	C759.850586,350.828857 759.945740,350.390289 759.903320,349.873474 
	C761.823181,349.039978 763.765442,348.121033 765.762024,347.341095 
	C815.733765,327.819885 827.771912,265.843628 803.644836,226.772980 
	C788.289917,201.907639 763.837646,192.131851 735.230042,188.739136 
	C732.249695,188.531143 729.269470,188.144806 726.288940,188.142120 
	C686.435181,188.106201 646.581360,188.119553 606.727600,188.155151 
	C605.792175,188.155991 604.857178,188.556534 603.175293,188.939728 
M1388.223511,476.281219 
	C1402.023315,489.184235 1418.421631,497.715485 1436.908081,504.344727 
	C1426.100098,508.197815 1417.964844,514.097839 1410.994751,521.718994 
	C1404.874268,528.411377 1404.896606,529.435730 1411.746094,535.720032 
	C1417.360352,540.871216 1418.914673,540.404541 1424.423950,534.932007 
	C1428.707397,530.677124 1433.462036,526.276245 1438.869385,523.912415 
	C1447.939087,519.947632 1457.019897,522.832825 1464.960693,527.961365 
	C1475.997559,535.089355 1486.702881,542.737488 1497.454346,550.299011 
	C1512.192627,560.664490 1526.965454,571.008484 1544.271118,576.732422 
	C1558.334229,581.383789 1572.382935,581.844604 1586.001831,574.854919 
	C1603.190674,566.033020 1613.206421,550.833313 1621.701782,534.366821 
	C1622.281128,533.243896 1621.752441,531.032715 1620.974243,529.817627 
	C1617.983643,525.148621 1614.464966,524.808411 1609.772217,528.979309 
	C1598.217773,539.248474 1584.780762,541.252808 1570.137939,538.572449 
	C1554.720703,535.750427 1540.931763,528.617432 1526.839600,522.287048 
	C1517.889282,518.266418 1508.961914,514.194946 1499.239990,509.790985 
	C1501.537231,509.276611 1502.932861,508.863556 1504.358521,508.659485 
	C1546.502075,502.627228 1577.881592,480.385681 1598.974487,444.014252 
	C1625.153076,398.873199 1630.320557,350.340729 1619.348999,299.804047 
	C1612.553955,268.504852 1598.805908,240.674988 1575.432251,218.423050 
	C1545.541138,189.966736 1509.157471,179.576691 1468.717651,183.245453 
	C1419.432739,187.716675 1383.062012,212.689560 1360.088379,256.165192 
	C1340.325317,293.565002 1333.518555,333.741058 1339.284790,375.758820 
	C1344.572754,414.289948 1358.857178,448.607208 1388.223511,476.281219 
M1998.665649,148.160126 
	C1982.606445,168.687012 1977.031982,191.616562 1982.984009,217.129318 
	C1992.389893,257.446472 2034.313232,283.228760 2074.183594,273.267731 
	C2110.758545,264.129974 2135.418701,227.208740 2130.395020,189.943024 
	C2126.895264,163.981812 2114.511963,143.780823 2092.130371,130.488144 
	C2060.541016,111.726913 2023.852783,118.825272 1998.665649,148.160126 
z"/>
<path fill="#0F3928" opacity="1.000000" stroke="none" 
	d="
M1387.954346,476.050232 
	C1358.857178,448.607208 1344.572754,414.289948 1339.284790,375.758820 
	C1333.518555,333.741058 1340.325317,293.565002 1360.088379,256.165192 
	C1383.062012,212.689560 1419.432739,187.716675 1468.717651,183.245453 
	C1509.157471,179.576691 1545.541138,189.966736 1575.432251,218.423050 
	C1598.805908,240.674988 1612.553955,268.504852 1619.348999,299.804047 
	C1630.320557,350.340729 1625.153076,398.873199 1598.974487,444.014252 
	C1577.881592,480.385681 1546.502075,502.627228 1504.358521,508.659485 
	C1502.932861,508.863556 1501.537231,509.276611 1499.239990,509.790985 
	C1508.961914,514.194946 1517.889282,518.266418 1526.839600,522.287048 
	C1540.931763,528.617432 1554.720703,535.750427 1570.137939,538.572449 
	C1584.780762,541.252808 1598.217773,539.248474 1609.772217,528.979309 
	C1614.464966,524.808411 1617.983643,525.148621 1620.974243,529.817627 
	C1621.752441,531.032715 1622.281128,533.243896 1621.701782,534.366821 
	C1613.206421,550.833313 1603.190674,566.033020 1586.001831,574.854919 
	C1572.382935,581.844604 1558.334229,581.383789 1544.271118,576.732422 
	C1526.965454,571.008484 1512.192627,560.664490 1497.454346,550.299011 
	C1486.702881,542.737488 1475.997559,535.089355 1464.960693,527.961365 
	C1457.019897,522.832825 1447.939087,519.947632 1438.869385,523.912415 
	C1433.462036,526.276245 1428.707397,530.677124 1424.423950,534.932007 
	C1418.914673,540.404541 1417.360352,540.871216 1411.746094,535.720032 
	C1404.896606,529.435730 1404.874268,528.411377 1410.994751,521.718994 
	C1417.964844,514.097839 1426.100098,508.197815 1436.908081,504.344727 
	C1418.421631,497.715485 1402.023315,489.184235 1387.954346,476.050232 
M1414.723877,442.711273 
	C1418.825684,449.364594 1422.467529,456.358917 1427.104858,462.615417 
	C1455.093384,500.375580 1508.772461,503.068390 1538.059326,466.201996 
	C1548.484985,453.078278 1555.348022,438.187805 1559.899536,422.224396 
	C1571.093628,382.963623 1570.244507,343.259430 1563.390259,303.474152 
	C1558.765503,276.630829 1550.117920,251.330872 1533.753662,229.051483 
	C1509.212280,195.639297 1465.316772,189.728546 1434.044922,216.261841 
	C1419.525269,228.581268 1411.267944,245.175323 1405.229370,262.887421 
	C1394.240234,295.120636 1392.000610,328.349609 1394.484009,362.050934 
	C1396.532104,389.844238 1402.173340,416.769440 1414.723877,442.711273 
z"/>
<path fill="#0F3827" opacity="1.000000" stroke="none" 
	d="
M736.004700,188.990967 
	C763.837646,192.131851 788.289917,201.907639 803.644836,226.772980 
	C827.771912,265.843628 815.733765,327.819885 765.762024,347.341095 
	C763.765442,348.121033 761.823181,349.039978 759.903320,349.873474 
	C759.945740,350.390289 759.850586,350.828857 760.011536,350.965210 
	C778.237244,366.405945 786.006348,388.520203 796.777954,408.693115 
	C808.382629,430.426117 819.501892,452.421844 831.339783,474.025238 
	C836.683777,483.777710 845.103577,490.226044 856.602844,491.633698 
	C862.022339,492.297150 862.058167,496.294708 861.906677,500.172363 
	C861.745483,504.301331 859.223022,505.615448 855.175720,505.585541 
	C837.181519,505.452606 819.184692,505.671112 801.190552,505.537354 
	C790.083069,505.454803 782.701538,498.767761 777.961731,489.790741 
	C769.341064,473.463593 761.401794,456.763031 753.590088,440.026062 
	C744.787415,421.166046 736.486572,402.072296 727.853577,383.132111 
	C726.133118,379.357330 723.956726,375.783569 721.888977,372.175293 
	C717.331665,364.222687 710.219971,360.598267 701.257874,360.328369 
	C697.262390,360.208008 693.252014,360.467255 689.263672,360.260193 
	C685.334778,360.056244 683.895691,361.754883 683.957703,365.564941 
	C684.082458,373.227478 683.965271,380.893829 683.960999,388.558624 
	C683.947449,412.886414 683.890747,437.214386 683.973267,461.541870 
	C683.989014,466.189301 684.269226,470.877838 684.942139,475.472046 
	C686.268372,484.526886 690.500916,488.630310 699.419006,490.084259 
	C703.358521,490.726501 707.299683,491.393158 711.263489,491.842590 
	C716.641113,492.452332 716.076904,496.559448 716.127380,500.096924 
	C716.177246,503.591064 714.525269,505.430359 710.595642,505.426178 
	C676.104431,505.389618 641.612793,505.454254 607.121887,505.613953 
	C602.994873,505.633026 601.295227,503.628265 601.201477,499.971893 
	C601.105896,496.243317 601.219482,492.426727 606.295105,491.749298 
	C609.915344,491.266113 613.539551,490.770111 617.127808,490.097778 
	C627.684326,488.119781 631.754761,483.677032 632.657715,473.135071 
	C632.941467,469.821655 633.079163,466.485413 633.079529,463.159607 
	C633.087891,384.677368 633.068359,306.195160 633.053711,227.712921 
	C633.053589,227.046402 633.052124,226.379883 633.048279,225.713379 
	C632.952332,209.054184 628.519775,204.190765 611.822388,202.423233 
	C610.993896,202.335541 610.164307,202.256348 609.337219,202.156769 
	C600.874146,201.137985 598.760071,196.601562 603.837891,189.168015 
	C605.630493,189.574890 606.760315,189.909073 607.890320,189.909622 
	C649.182068,189.929276 690.473816,189.927048 731.765503,189.872147 
	C733.178955,189.870270 734.591675,189.297577 736.004700,188.990967 
M732.584412,338.247192 
	C743.234741,332.674255 750.657776,324.126434 755.017456,313.053070 
	C764.641907,288.607178 764.729248,263.906677 755.589905,239.381195 
	C749.449158,222.902573 737.944702,211.539673 720.404419,207.710037 
	C713.658508,206.237198 706.540344,206.122406 699.583618,206.034576 
	C684.816833,205.848114 684.118347,206.560440 684.006653,221.337128 
	C683.850403,242.000900 683.938354,262.666565 683.928650,283.331421 
	C683.920227,301.163208 683.948120,318.995117 683.890625,336.826721 
	C683.881409,339.685577 683.938965,342.498993 687.609802,342.654297 
	C702.550171,343.286407 717.599609,344.871521 732.584412,338.247192 
z"/>
<path fill="#0F3827" opacity="1.000000" stroke="none" 
	d="
M1876.125610,203.620483 
	C1896.758057,216.287430 1912.040771,234.081192 1922.302368,255.591705 
	C1952.042236,317.932465 1952.577393,380.565338 1919.661499,441.811310 
	C1898.408936,481.355896 1864.421875,504.072540 1819.425049,509.247101 
	C1785.989746,513.092102 1754.320435,507.846985 1725.467773,489.674622 
	C1697.871460,472.293640 1679.638062,447.380432 1668.907959,416.973663 
	C1657.937866,385.886993 1653.875854,353.884460 1659.038940,321.088928 
	C1664.160767,288.555786 1674.816284,258.216217 1695.640503,232.122452 
	C1708.752197,215.692734 1724.815308,203.021057 1744.463623,194.821899 
	C1745.057739,195.718842 1745.138062,196.728531 1745.589966,196.938385 
	C1751.857910,199.849442 1757.954590,196.015045 1758.005371,189.208572 
	C1758.155151,189.108673 1758.304810,189.008789 1758.764282,189.241806 
	C1759.503174,189.887711 1759.932373,190.200684 1760.361572,190.513641 
	C1760.577881,189.791336 1760.794189,189.069077 1761.010498,188.346802 
	C1761.438477,188.188705 1761.866333,188.030609 1762.757446,188.059448 
	C1763.427246,188.018555 1763.633789,187.790710 1763.840454,187.562866 
	C1764.662842,187.316849 1765.485352,187.070831 1766.698730,187.211914 
	C1770.024536,188.715790 1773.232910,189.396561 1775.840820,191.033905 
	C1782.725220,195.356216 1788.811890,194.873901 1795.479614,190.242645 
	C1801.235840,186.244446 1807.739746,183.995316 1815.179688,185.408005 
	C1817.610352,185.869537 1820.382568,184.532608 1822.998535,184.018188 
	C1823.178345,183.983917 1823.358032,183.949646 1823.927734,184.335083 
	C1825.735962,187.448212 1827.279663,187.844025 1828.999512,185.010162 
	C1829.173828,184.973770 1829.348145,184.937393 1829.799316,185.358795 
	C1829.624756,187.092804 1829.482666,189.212280 1828.672119,189.509613 
	C1823.068359,191.565506 1817.323120,193.235489 1811.627563,195.042725 
	C1809.040039,195.863754 1805.875366,195.994537 1805.326172,199.867859 
	C1801.944580,199.818985 1798.975586,199.737274 1795.984985,199.438965 
	C1795.801514,199.009613 1795.639648,198.796875 1795.477783,198.584152 
	C1795.316284,198.952423 1795.154785,199.320679 1794.578491,199.795105 
	C1788.109619,200.936569 1782.055786,201.971863 1775.957764,202.640320 
	C1772.798462,198.573105 1769.081543,197.911652 1765.267212,200.433151 
	C1761.803589,202.722839 1758.305298,205.037827 1761.714111,210.049805 
	C1756.869385,214.257950 1751.919067,217.890717 1747.814087,222.308777 
	C1734.816284,236.297623 1727.275146,253.368500 1722.057983,271.403534 
	C1710.593872,311.033447 1710.170288,351.215118 1717.590454,391.563934 
	C1722.087891,416.019409 1730.327026,439.052246 1744.607666,459.740112 
	C1774.769653,503.434998 1836.473755,503.877747 1864.186401,457.491730 
	C1872.938232,442.842590 1878.894043,427.251526 1882.344604,410.684753 
	C1889.498047,376.339722 1888.949585,341.780029 1883.572388,307.331726 
	C1878.386230,274.108032 1868.222656,242.836731 1844.230347,217.956879 
	C1846.926147,216.160385 1850.299561,214.893921 1851.409058,212.553970 
	C1853.814819,207.480469 1857.550171,206.661423 1862.344360,206.968658 
	C1864.979858,207.137558 1867.732300,207.424698 1870.251709,206.857422 
	C1872.346436,206.385757 1874.177612,204.743958 1876.125610,203.620483 
z"/>
<path fill="#103928" opacity="1.000000" stroke="none" 
	d="
M1127.000610,500.997620 
	C1126.492676,506.083191 1123.323242,507.904785 1118.583740,508.386230 
	C1111.850220,509.070251 1107.294189,506.991150 1103.203003,501.039429 
	C1054.542358,430.249084 1005.577881,359.667572 956.718750,289.013550 
	C947.547668,275.751556 938.489380,262.411469 928.638428,248.025848 
	C928.413574,250.480881 928.212219,251.655136 928.211792,252.829468 
	C928.186829,322.306580 928.137085,391.783783 928.248474,461.260712 
	C928.257263,466.708435 929.111633,472.207153 930.093872,477.587097 
	C931.205505,483.675842 934.924622,487.810883 941.156494,489.068237 
	C946.523010,490.150970 951.933655,491.141663 957.373352,491.699738 
	C962.713501,492.247589 962.631287,496.133362 962.627258,499.692596 
	C962.623108,503.354401 961.137451,505.730774 956.572571,505.696350 
	C930.749390,505.501617 904.923828,505.504608 879.099915,505.626434 
	C874.889832,505.646271 873.272827,503.729919 873.318909,499.994415 
	C873.363708,496.362122 873.076294,492.368835 878.329346,491.759979 
	C882.453979,491.281891 886.589722,490.809204 890.670044,490.059082 
	C899.973145,488.348846 904.132507,484.065338 905.792664,474.618317 
	C906.310059,471.673645 906.549438,468.680145 907.459351,465.212616 
	C908.327942,463.508667 908.937195,462.301331 908.938049,461.093506 
	C908.989624,387.411224 909.000854,313.728912 908.922974,240.046677 
	C908.921570,238.704712 907.801636,237.363937 907.203491,236.022614 
	C906.808594,232.232925 906.560425,228.421005 905.990540,224.657822 
	C904.428040,214.340256 898.187500,207.914490 888.470703,204.998077 
	C883.399414,203.475983 878.084045,202.625656 872.818237,201.933441 
	C867.583374,201.245300 867.547791,197.606750 867.689575,193.869354 
	C867.825195,190.291870 869.305908,188.122330 873.534302,188.142731 
	C898.022034,188.260895 922.511169,188.261810 946.998474,188.097305 
	C951.216492,188.068954 952.779907,190.917450 954.618591,193.590485 
	C969.996338,215.946442 985.184570,238.433685 1000.672607,260.712646 
	C1035.445312,310.731750 1070.357300,360.653992 1105.220337,410.610321 
	C1105.496826,411.006439 1105.879883,411.328308 1106.672485,412.176208 
	C1106.838867,410.509735 1107.060425,409.321838 1107.061401,408.133759 
	C1107.107178,353.159546 1107.222046,298.185089 1107.068970,243.211395 
	C1107.045532,234.771606 1106.155640,226.281738 1104.970825,217.913513 
	C1103.936890,210.611206 1099.145142,206.037064 1091.909180,204.547180 
	C1086.379761,203.408691 1080.770630,202.499054 1075.151489,202.000946 
	C1069.728760,201.520264 1069.971680,197.779205 1069.914795,194.104492 
	C1069.853516,190.138077 1071.479736,188.102646 1075.914062,188.125549 
	C1102.234375,188.261520 1128.556274,188.279831 1154.876099,188.107224 
	C1159.306641,188.078156 1160.478516,190.367874 1160.457397,193.875458 
	C1160.436890,197.276077 1160.860352,201.236603 1155.772705,201.765549 
	C1153.289062,202.023743 1150.798950,202.246109 1148.328857,202.602493 
	C1134.728882,204.564713 1129.485474,210.173553 1128.445068,223.847183 
	C1128.205078,227.000061 1128.043579,230.158905 1127.359741,233.819778 
	C1126.583252,236.221710 1126.040039,238.118759 1126.039062,240.016068 
	C1125.996216,325.283783 1125.994995,410.551483 1126.041626,495.819183 
	C1126.042603,497.545502 1126.667114,499.271484 1127.000610,500.997620 
z"/>
<path fill="#0F3827" opacity="1.000000" stroke="none" 
	d="
M326.094513,217.013367 
	C323.684998,207.026917 316.341553,203.544968 307.080627,202.608734 
	C305.434052,202.442276 303.774994,202.396133 302.130005,202.217865 
	C294.216644,201.360275 292.353455,198.453842 295.236298,190.328247 
	C296.134247,189.548248 296.507294,189.137466 296.880341,188.726685 
	C300.609436,188.553665 304.338501,188.380630 308.656860,188.651978 
	C310.492157,189.376083 311.737823,189.898331 312.984222,189.900024 
	C343.295746,189.941208 373.607391,189.941559 403.918854,189.875366 
	C405.299347,189.872360 406.678314,189.179306 408.058014,188.807648 
	C411.357941,191.404327 411.378632,195.058456 409.741058,198.096451 
	C408.762024,199.912857 405.904236,201.076614 403.655823,201.757904 
	C400.827087,202.615021 397.732422,202.545532 394.797546,203.110062 
	C384.276306,205.133850 380.182251,209.455307 378.938843,220.038818 
	C378.416229,224.487289 378.032928,228.982300 378.027191,233.456711 
	C377.962158,284.095673 377.899567,334.734955 378.021271,385.373688 
	C378.069885,405.592255 379.746826,425.632324 387.069977,444.773315 
	C397.402527,471.780151 419.200043,486.524811 448.149811,487.033722 
	C482.744263,487.641937 506.741028,468.915741 516.148499,437.221161 
	C519.758545,425.058563 520.927185,412.171326 523.786072,399.054077 
	C524.570679,397.543518 524.958008,396.593292 524.958557,395.642792 
	C524.990295,343.043640 524.999939,290.444427 524.931519,237.845306 
	C524.929871,236.574402 524.022400,235.304672 523.537476,234.034378 
	C522.856018,228.777557 522.386719,223.482330 521.444031,218.272781 
	C519.980286,210.183975 515.082703,205.274414 506.905548,203.862350 
	C502.644287,203.126511 498.378418,202.312943 494.079407,201.926163 
	C488.536835,201.427505 488.596924,197.629562 488.679474,193.639923 
	C488.760437,189.725204 490.593658,188.132690 494.638519,188.148651 
	C520.635376,188.251205 546.633484,188.256577 572.629883,188.088287 
	C577.094421,188.059387 578.751160,190.155807 578.680115,194.042419 
	C578.613159,197.706650 578.588379,201.634674 573.211426,201.805389 
	C570.725098,201.884308 568.241882,202.323318 565.775024,202.711853 
	C551.925537,204.893143 546.455872,210.416672 546.021179,224.555847 
	C545.340759,246.690399 545.177856,268.845215 545.088318,290.992584 
	C544.950195,325.155426 545.292847,359.321381 544.984009,393.481964 
	C544.768066,417.370575 540.474426,440.521057 529.222229,461.904510 
	C515.378845,488.212250 493.314545,503.155029 464.233307,508.203583 
	C444.478607,511.633026 424.760101,511.373993 405.172302,507.289825 
	C365.676666,499.054810 340.855896,475.324341 331.782745,435.939484 
	C329.218964,424.810455 328.470520,413.263214 327.110138,401.350220 
	C327.206238,400.526489 327.081635,400.260376 326.957062,399.994232 
	C326.872925,399.549194 326.788757,399.104187 327.086365,398.155701 
	C327.293121,396.764404 327.118042,395.876617 326.942963,394.988800 
	C326.856140,394.238312 326.769318,393.487823 326.978973,392.279236 
	C327.160217,391.543121 327.045013,391.265167 326.929810,390.987183 
	C326.843231,383.352722 326.686005,375.718262 326.681763,368.083771 
	C326.657715,325.032043 326.670441,281.980316 327.083618,238.254669 
	C327.308868,236.048264 327.121155,234.515762 326.933411,232.983246 
	C326.850708,231.276230 326.767975,229.569214 327.104095,227.178711 
	C327.545074,223.259521 329.824615,219.683777 326.094513,217.013367 
z"/>
<path fill="#0F3827" opacity="1.000000" stroke="none" 
	d="
M99.561333,216.885605 
	C98.347595,209.185669 93.804230,204.829758 86.173752,203.626297 
	C82.902397,203.110352 79.623016,202.632599 76.335571,202.234070 
	C68.497902,201.283920 66.744667,198.665863 69.313225,190.410065 
	C74.656723,190.049408 79.393082,189.935165 84.129463,189.933594 
	C121.598839,189.921219 159.068237,189.950317 196.537598,189.925644 
	C220.849854,189.909622 245.162064,189.824768 269.474304,189.770752 
	C269.770172,192.213394 270.066071,194.656052 269.974274,197.807831 
	C269.457153,205.053574 267.286407,211.737198 270.989594,217.997787 
	C271.093262,219.701019 271.196930,221.404266 270.927826,223.827957 
	C270.396179,230.973862 269.950806,237.409637 270.181793,243.821030 
	C270.329376,247.916290 271.477417,251.975525 272.176941,256.050903 
	C272.202179,260.172668 269.289764,260.874268 266.140106,261.042023 
	C262.719055,261.224274 259.271210,261.114166 258.108002,256.889130 
	C256.871216,252.396835 255.849564,247.842682 254.523270,243.378113 
	C247.380661,219.334534 231.689240,207.209564 206.568100,206.710999 
	C191.577225,206.413483 176.575897,206.585037 161.579636,206.641937 
	C154.713470,206.667984 153.641754,207.694183 152.785385,214.623260 
	C152.439194,217.424408 152.196762,220.258881 152.192337,223.078644 
	C152.136887,258.405090 152.232132,293.732269 152.006912,329.057465 
	C151.974670,334.113770 153.446106,335.782593 158.473633,335.610077 
	C170.452011,335.199097 182.461548,335.562927 194.428223,334.985901 
	C204.574615,334.496643 211.601730,329.012604 214.727905,319.246521 
	C216.499329,313.712646 217.723999,307.996185 219.036697,302.325348 
	C220.198380,297.306732 222.650055,295.677490 228.559647,296.091797 
	C233.206314,296.417572 234.113098,299.240234 234.105408,303.277527 
	C234.050491,332.104858 234.076126,360.932495 234.172989,389.759735 
	C234.186539,393.791321 232.743713,396.032684 228.544479,396.377594 
	C222.329376,396.888031 220.088455,395.729401 219.019562,391.022766 
	C217.730331,385.346100 216.794525,379.570038 215.173172,373.991791 
	C211.569977,361.595154 204.702667,355.779541 191.839767,355.068939 
	C180.375534,354.435608 168.860092,354.710114 157.366928,354.630463 
	C153.602234,354.604370 152.113068,356.627808 152.120270,360.329529 
	C152.188950,395.655884 152.170578,430.982422 152.240601,466.308777 
	C152.245850,468.959808 152.694168,471.615234 153.012848,474.259399 
	C154.099075,483.271942 158.912735,488.412689 167.831207,489.924927 
	C172.254684,490.675018 176.700562,491.421234 181.167282,491.756104 
	C186.959229,492.190338 186.317444,496.474091 186.432770,500.148407 
	C186.570679,504.541565 183.839584,505.519135 179.868469,505.509918 
	C148.374878,505.436768 116.880943,505.512451 85.387115,505.545532 
	C81.554543,505.549561 77.713478,505.417358 73.891701,505.627563 
	C69.639458,505.861420 68.211281,503.370941 68.139702,499.836914 
	C68.068993,496.345764 68.096046,492.577362 72.842712,491.827179 
	C77.275841,491.126495 81.761108,490.710754 86.159256,489.843994 
	C93.320450,488.432678 98.349785,484.647491 99.607147,476.168793 
	C100.118759,470.486176 100.609528,465.510498 100.611855,460.534576 
	C100.647522,384.276398 100.638916,308.018188 100.561592,231.760056 
	C100.556564,226.801575 99.909660,221.843735 99.561333,216.885605 
z"/>
<path fill="#0F3827" opacity="1.000000" stroke="none" 
	d="
M1274.735840,468.975311 
	C1276.203979,487.949371 1282.742310,489.479065 1298.018066,491.100830 
	C1301.868652,491.509613 1306.165405,491.322693 1306.470337,497.226868 
	C1306.818604,503.975830 1305.805786,505.505371 1298.951782,505.516968 
	C1264.966797,505.574463 1230.981445,505.505981 1196.996948,505.630829 
	C1192.854004,505.646057 1191.654297,503.217926 1191.498779,500.079620 
	C1191.328735,496.647858 1191.243530,492.708160 1195.934082,491.832733 
	C1200.014771,491.071075 1204.180298,490.771027 1208.269897,490.049194 
	C1217.813721,488.364563 1221.890137,484.128418 1222.966919,474.500549 
	C1223.483032,469.886261 1223.678345,465.213806 1223.680542,460.567566 
	C1223.717285,383.934204 1223.711426,307.300842 1223.664062,230.667511 
	C1223.661499,226.348862 1223.515625,221.988968 1222.919922,217.720352 
	C1221.554810,207.936935 1216.171021,203.738144 1203.832397,202.379883 
	C1202.178711,202.197830 1200.509033,202.163498 1198.853394,201.995667 
	C1191.825195,201.283249 1190.317871,199.020432 1192.557129,191.375366 
	C1195.064941,191.023331 1196.993408,191.023331 1199.410767,191.023331 
	C1197.615601,189.998962 1196.344238,189.273514 1195.072876,188.548050 
	C1197.740723,188.436447 1200.408447,188.324844 1203.661621,188.653198 
	C1205.989502,189.371078 1207.731567,189.888519 1209.474487,189.891220 
	C1238.899414,189.937088 1268.324463,189.890976 1297.749146,189.964676 
	C1300.261597,189.970963 1302.772095,190.680237 1305.283569,191.062927 
	C1304.843994,191.565979 1304.404541,192.069031 1303.964966,192.572098 
	C1304.762817,194.073822 1305.560669,195.575546 1306.358521,197.077301 
	C1306.278687,197.513260 1306.198975,197.949234 1305.647949,198.738190 
	C1304.797974,199.757431 1304.419067,200.423721 1304.040161,201.089996 
	C1300.322510,201.701248 1296.597778,202.273270 1292.888306,202.930878 
	C1279.729492,205.263641 1275.471802,210.270767 1275.151123,223.722580 
	C1275.131470,224.551071 1275.098022,225.379211 1274.533691,226.741974 
	C1273.667603,228.483673 1273.051392,229.690735 1273.050781,230.898178 
	C1273.004639,308.893982 1272.999634,386.889832 1273.079712,464.885590 
	C1273.081055,466.249390 1274.159790,467.612091 1274.735840,468.975311 
z"/>
<path fill="#153D2C" opacity="1.000000" stroke="none" 
	d="
M1998.881592,147.877701 
	C2023.852783,118.825272 2060.541016,111.726913 2092.130371,130.488144 
	C2114.511963,143.780823 2126.895264,163.981812 2130.395020,189.943024 
	C2135.418701,227.208740 2110.758545,264.129974 2074.183594,273.267731 
	C2034.313232,283.228760 1992.389893,257.446472 1982.984009,217.129318 
	C1977.031982,191.616562 1982.606445,168.687012 1998.881592,147.877701 
M2032.387451,258.288452 
	C2047.188965,264.285980 2062.182617,264.885315 2077.210693,259.401764 
	C2112.387451,246.566238 2131.278076,201.502670 2109.553467,164.389252 
	C2095.681152,140.689987 2069.063232,128.250549 2043.515381,133.839050 
	C2016.461914,139.756866 1995.891602,163.659332 1993.094727,193.275620 
	C1990.655640,219.101486 2006.085571,247.303558 2032.387451,258.288452 
z"/>
<path fill="#F6F7F6" opacity="1.000000" stroke="none" 
	d="
M99.111267,216.912582 
	C99.909660,221.843735 100.556564,226.801575 100.561592,231.760056 
	C100.638916,308.018188 100.647522,384.276398 100.611855,460.534576 
	C100.609528,465.510498 100.118759,470.486176 99.619873,475.778076 
	C95.307709,476.478363 93.923340,474.713165 93.928162,470.571625 
	C94.024384,387.934204 94.010719,305.296631 93.960861,222.659134 
	C93.958794,219.237213 94.315109,216.570312 99.111267,216.912582 
z"/>
<path fill="#133B2A" opacity="1.000000" stroke="none" 
	d="
M1805.738770,199.835052 
	C1805.875366,195.994537 1809.040039,195.863754 1811.627563,195.042725 
	C1817.323120,193.235489 1823.068359,191.565506 1828.672119,189.509613 
	C1829.482666,189.212280 1829.624756,187.092804 1830.036621,185.481140 
	C1846.433838,188.098816 1861.687988,194.068130 1875.936523,203.352478 
	C1874.177612,204.743958 1872.346436,206.385757 1870.251709,206.857422 
	C1867.732300,207.424698 1864.979858,207.137558 1862.344360,206.968658 
	C1857.550171,206.661423 1853.814819,207.480469 1851.409058,212.553970 
	C1850.299561,214.893921 1846.926147,216.160385 1843.920410,217.842865 
	C1832.552246,208.031647 1819.935059,202.281693 1805.738770,199.835052 
z"/>
<path fill="#002412" opacity="1.000000" stroke="none" 
	d="
M1274.778442,468.510193 
	C1274.159790,467.612091 1273.081055,466.249390 1273.079712,464.885590 
	C1272.999634,386.889832 1273.004639,308.893982 1273.050781,230.898178 
	C1273.051392,229.690735 1273.667603,228.483673 1274.366455,227.152847 
	C1274.764648,307.367859 1274.792847,387.706451 1274.778442,468.510193 
z"/>
<path fill="#002412" opacity="1.000000" stroke="none" 
	d="
M907.138184,236.485672 
	C907.801636,237.363937 908.921570,238.704712 908.922974,240.046677 
	C909.000854,313.728912 908.989624,387.411224 908.938049,461.093506 
	C908.937195,462.301331 908.327942,463.508667 907.635010,464.842407 
	C907.216370,445.346466 907.131897,425.724396 907.120789,406.102264 
	C907.088867,349.717743 907.086609,293.333252 907.138184,236.485672 
z"/>
<path fill="#002412" opacity="1.000000" stroke="none" 
	d="
M1127.210938,500.628510 
	C1126.667114,499.271484 1126.042603,497.545502 1126.041626,495.819183 
	C1125.994995,410.551483 1125.996216,325.283783 1126.039062,240.016068 
	C1126.040039,238.118759 1126.583252,236.221710 1127.226074,234.180389 
	C1127.559204,314.455139 1127.542358,394.874054 1127.515991,475.292969 
	C1127.513306,483.615112 1127.454224,491.937256 1127.210938,500.628510 
z"/>
<path fill="#2C4C3E" opacity="1.000000" stroke="none" 
	d="
M269.301331,189.384247 
	C245.162064,189.824768 220.849854,189.909622 196.537598,189.925644 
	C159.068237,189.950317 121.598839,189.921219 84.129463,189.933594 
	C79.393082,189.935165 74.656723,190.049408 69.523338,190.066711 
	C71.339470,189.386993 73.551514,188.201950 75.765915,188.197540 
	C130.498383,188.088547 185.231094,188.106934 239.963776,188.095627 
	C247.949020,188.093979 255.934814,188.000443 263.919037,188.080414 
	C265.658386,188.097855 267.392090,188.677185 269.301331,189.384247 
z"/>
<path fill="#133B2A" opacity="1.000000" stroke="none" 
	d="
M1822.604980,183.893860 
	C1820.382568,184.532608 1817.610352,185.869537 1815.179688,185.408005 
	C1807.739746,183.995316 1801.235840,186.244446 1795.479614,190.242645 
	C1788.811890,194.873901 1782.725220,195.356216 1775.840820,191.033905 
	C1773.232910,189.396561 1770.024536,188.715790 1767.028320,187.244354 
	C1782.804077,182.273193 1798.986328,181.960800 1815.275269,183.048080 
	C1817.593018,183.202789 1819.899536,183.524887 1822.604980,183.893860 
z"/>
<path fill="#2C4C3E" opacity="1.000000" stroke="none" 
	d="
M735.617371,188.865051 
	C734.591675,189.297577 733.178955,189.870270 731.765503,189.872147 
	C690.473816,189.927048 649.182068,189.929276 607.890320,189.909622 
	C606.760315,189.909073 605.630493,189.574890 604.211243,189.083466 
	C604.857178,188.556534 605.792175,188.155991 606.727600,188.155151 
	C646.581360,188.119553 686.435181,188.106201 726.288940,188.142120 
	C729.269470,188.144806 732.249695,188.531143 735.617371,188.865051 
z"/>
<path fill="#2C4C3E" opacity="1.000000" stroke="none" 
	d="
M1306.524414,196.740692 
	C1305.560669,195.575546 1304.762817,194.073822 1303.964966,192.572098 
	C1304.404541,192.069031 1304.843994,191.565979 1305.283569,191.062927 
	C1302.772095,190.680237 1300.261597,189.970963 1297.749146,189.964676 
	C1268.324463,189.890976 1238.899414,189.937088 1209.474487,189.891220 
	C1207.731567,189.888519 1205.989502,189.371078 1204.100830,188.738434 
	C1213.753784,188.283371 1223.552856,188.118179 1233.352051,188.095917 
	C1255.136475,188.046417 1276.921265,188.048676 1298.705811,188.072189 
	C1306.298218,188.080383 1306.655884,188.511124 1306.524414,196.740692 
z"/>
<path fill="#2C4C3E" opacity="1.000000" stroke="none" 
	d="
M407.747009,188.522415 
	C406.678314,189.179306 405.299347,189.872360 403.918854,189.875366 
	C373.607391,189.941559 343.295746,189.941208 312.984222,189.900024 
	C311.737823,189.898331 310.492157,189.376083 309.100433,188.741302 
	C317.899963,188.281082 326.845245,188.086334 335.790466,188.088074 
	C359.672302,188.092682 383.554169,188.181717 407.747009,188.522415 
z"/>
<path fill="#002412" opacity="1.000000" stroke="none" 
	d="
M523.448975,234.446045 
	C524.022400,235.304672 524.929871,236.574402 524.931519,237.845306 
	C524.999939,290.444427 524.990295,343.043640 524.958557,395.642792 
	C524.958008,396.593292 524.570679,397.543518 523.995850,398.706970 
	C523.602417,349.051453 523.581970,299.182800 523.543396,249.314133 
	C523.539612,244.495270 523.424133,239.676514 523.448975,234.446045 
z"/>
<path fill="#133B2A" opacity="1.000000" stroke="none" 
	d="
M1757.639771,189.240265 
	C1757.954590,196.015045 1751.857910,199.849442 1745.589966,196.938385 
	C1745.138062,196.728531 1745.057739,195.718842 1744.833008,194.741913 
	C1748.998901,192.692505 1753.136597,190.982239 1757.639771,189.240265 
z"/>
<path fill="#2C4C3E" opacity="1.000000" stroke="none" 
	d="
M272.317078,255.666733 
	C271.477417,251.975525 270.329376,247.916290 270.181793,243.821030 
	C269.950806,237.409637 270.396179,230.973862 270.851746,224.249939 
	C271.584686,234.395157 272.020966,244.838852 272.317078,255.666733 
z"/>
<path fill="#2C4C3E" opacity="1.000000" stroke="none" 
	d="
M271.083282,217.621719 
	C267.286407,211.737198 269.457153,205.053574 269.894592,198.226715 
	C270.527405,204.372864 270.852173,210.809250 271.083282,217.621719 
z"/>
<path fill="#002412" opacity="1.000000" stroke="none" 
	d="
M326.034332,217.423843 
	C329.824615,219.683777 327.545074,223.259521 327.213440,226.763290 
	C326.594055,223.965683 326.284119,220.900009 326.034332,217.423843 
z"/>
<path fill="#2C4C3E" opacity="1.000000" stroke="none" 
	d="
M1194.774414,188.479324 
	C1196.344238,189.273514 1197.615601,189.998962 1199.410767,191.023331 
	C1196.993408,191.023331 1195.064941,191.023331 1192.733887,191.033646 
	C1193.046143,190.166168 1193.761108,189.288376 1194.774414,188.479324 
z"/>
<path fill="#133B2A" opacity="1.000000" stroke="none" 
	d="
M1828.659302,184.884399 
	C1827.279663,187.844025 1825.735962,187.448212 1824.170654,184.462677 
	C1825.455566,184.366562 1826.887329,184.562592 1828.659302,184.884399 
z"/>
<path fill="#133B2A" opacity="1.000000" stroke="none" 
	d="
M1760.739746,188.334091 
	C1760.794189,189.069077 1760.577881,189.791336 1760.361572,190.513641 
	C1759.932373,190.200684 1759.503174,189.887711 1759.032593,189.272339 
	C1759.483765,188.753769 1759.976440,188.537567 1760.739746,188.334091 
z"/>
<path fill="#002412" opacity="1.000000" stroke="none" 
	d="
M326.832764,233.395233 
	C327.121155,234.515762 327.308868,236.048264 327.210327,237.802292 
	C326.860107,236.618286 326.796143,235.212753 326.832764,233.395233 
z"/>
<path fill="#2C4C3E" opacity="1.000000" stroke="none" 
	d="
M1304.354126,201.065125 
	C1304.419067,200.423721 1304.797974,199.757431 1305.478516,199.031418 
	C1305.409546,199.661209 1305.038818,200.350723 1304.354126,201.065125 
z"/>
<path fill="#002412" opacity="1.000000" stroke="none" 
	d="
M326.844818,395.360535 
	C327.118042,395.876617 327.293121,396.764404 327.208557,397.832428 
	C326.881500,397.252533 326.814087,396.492401 326.844818,395.360535 
z"/>
<path fill="#2C4C3E" opacity="1.000000" stroke="none" 
	d="
M296.578918,188.728409 
	C296.507294,189.137466 296.134247,189.548248 295.468445,189.992233 
	C295.542969,189.593658 295.910217,189.161896 296.578918,188.728409 
z"/>
<path fill="#002412" opacity="1.000000" stroke="none" 
	d="
M326.843811,391.244110 
	C327.045013,391.265167 327.160217,391.543121 327.104004,391.917542 
	C326.874329,391.842957 326.816071,391.671997 326.843811,391.244110 
z"/>
<path fill="#002412" opacity="1.000000" stroke="none" 
	d="
M326.879272,400.249023 
	C327.081635,400.260376 327.206238,400.526489 327.171722,400.892822 
	C326.942261,400.829956 326.871887,400.666870 326.879272,400.249023 
z"/>
<path fill="#133B2A" opacity="1.000000" stroke="none" 
	d="
M1763.595459,187.567535 
	C1763.633789,187.790710 1763.427246,188.018555 1763.104980,188.075165 
	C1762.989380,187.903931 1763.350342,187.572189 1763.595459,187.567535 
z"/>
<path fill="#FDFDFD" opacity="1.000000" stroke="none" 
	d="
M1414.546875,442.381836 
	C1402.173340,416.769440 1396.532104,389.844238 1394.484009,362.050934 
	C1392.000610,328.349609 1394.240234,295.120636 1405.229370,262.887421 
	C1411.267944,245.175323 1419.525269,228.581268 1434.044922,216.261841 
	C1465.316772,189.728546 1509.212280,195.639297 1533.753662,229.051483 
	C1550.117920,251.330872 1558.765503,276.630829 1563.390259,303.474152 
	C1570.244507,343.259430 1571.093628,382.963623 1559.899536,422.224396 
	C1555.348022,438.187805 1548.484985,453.078278 1538.059326,466.201996 
	C1508.772461,503.068390 1455.093384,500.375580 1427.104858,462.615417 
	C1422.467529,456.358917 1418.825684,449.364594 1414.546875,442.381836 
z"/>
<path fill="#FCFCFC" opacity="1.000000" stroke="none" 
	d="
M732.249268,338.421600 
	C717.599609,344.871521 702.550171,343.286407 687.609802,342.654297 
	C683.938965,342.498993 683.881409,339.685577 683.890625,336.826721 
	C683.948120,318.995117 683.920227,301.163208 683.928650,283.331421 
	C683.938354,262.666565 683.850403,242.000900 684.006653,221.337128 
	C684.118347,206.560440 684.816833,205.848114 699.583618,206.034576 
	C706.540344,206.122406 713.658508,206.237198 720.404419,207.710037 
	C737.944702,211.539673 749.449158,222.902573 755.589905,239.381195 
	C764.729248,263.906677 764.641907,288.607178 755.017456,313.053070 
	C750.657776,324.126434 743.234741,332.674255 732.249268,338.421600 
z"/>
<path fill="#FDFDFD" opacity="1.000000" stroke="none" 
	d="
M1805.326172,199.867859 
	C1819.935059,202.281693 1832.552246,208.031647 1843.571655,217.886230 
	C1868.222656,242.836731 1878.386230,274.108032 1883.572388,307.331726 
	C1888.949585,341.780029 1889.498047,376.339722 1882.344604,410.684753 
	C1878.894043,427.251526 1872.938232,442.842590 1864.186401,457.491730 
	C1836.473755,503.877747 1774.769653,503.434998 1744.607666,459.740112 
	C1730.327026,439.052246 1722.087891,416.019409 1717.590454,391.563934 
	C1710.170288,351.215118 1710.593872,311.033447 1722.057983,271.403534 
	C1727.275146,253.368500 1734.816284,236.297623 1747.814087,222.308777 
	C1751.919067,217.890717 1756.869385,214.257950 1762.053711,209.981796 
	C1767.116943,207.467590 1771.559448,205.237396 1776.001831,203.007172 
	C1782.055786,201.971863 1788.109619,200.936569 1794.834717,199.875458 
	C1795.672607,199.784927 1795.839600,199.720245 1796.006470,199.655579 
	C1798.975586,199.737274 1801.944580,199.818985 1805.326172,199.867859 
z"/>
<path fill="#133B2A" opacity="1.000000" stroke="none" 
	d="
M1775.957764,202.640350 
	C1771.559448,205.237396 1767.116943,207.467590 1762.334961,209.765808 
	C1758.305298,205.037827 1761.803589,202.722839 1765.267212,200.433151 
	C1769.081543,197.911652 1772.798462,198.573105 1775.957764,202.640350 
z"/>
<path fill="#133B2A" opacity="1.000000" stroke="none" 
	d="
M1795.984985,199.438965 
	C1795.839600,199.720245 1795.672607,199.784927 1795.249512,199.769272 
	C1795.154785,199.320679 1795.316284,198.952423 1795.477783,198.584152 
	C1795.639648,198.796875 1795.801514,199.009613 1795.984985,199.438965 
z"/>
<path fill="#F9FAF9" opacity="1.000000" stroke="none" 
	d="
M2032.031494,258.148712 
	C2006.085571,247.303558 1990.655640,219.101486 1993.094727,193.275620 
	C1995.891602,163.659332 2016.461914,139.756866 2043.515381,133.839050 
	C2069.063232,128.250549 2095.681152,140.689987 2109.553467,164.389252 
	C2131.278076,201.502670 2112.387451,246.566238 2077.210693,259.401764 
	C2062.182617,264.885315 2047.188965,264.285980 2032.031494,258.148712 
M2060.128418,156.204788 
	C2050.300781,156.195007 2040.471069,156.303040 2030.647095,156.112350 
	C2027.150635,156.044479 2026.060791,157.173859 2026.132446,160.701782 
	C2026.314941,169.690414 2026.044067,178.687347 2026.028198,187.681107 
	C2025.998169,204.791641 2026.019409,221.902237 2026.019409,239.249969 
	C2031.596436,239.249969 2036.678833,239.249969 2042.307617,239.249969 
	C2042.307617,228.353302 2042.307617,217.757339 2042.307617,206.815018 
	C2044.999023,206.815018 2047.177368,207.056061 2049.283447,206.767883 
	C2054.670410,206.030670 2057.892822,208.144272 2060.179443,213.137054 
	C2063.777832,220.993576 2067.957031,228.588699 2072.042236,236.213043 
	C2072.742676,237.520447 2074.134766,239.271240 2075.318848,239.362183 
	C2080.037354,239.724579 2084.800293,239.511536 2089.546631,239.511536 
	C2089.943604,239.044952 2090.340576,238.578369 2090.737305,238.111786 
	C2084.596924,226.514908 2078.456543,214.918030 2072.316895,203.322586 
	C2084.445801,196.931793 2089.040039,188.488724 2086.806396,175.941299 
	C2084.757812,164.432449 2077.701660,158.566696 2063.514893,156.577728 
	C2062.691650,156.462280 2061.870117,156.334808 2060.128418,156.204788 
z"/>
<path fill="#133B2A" opacity="1.000000" stroke="none" 
	d="
M2060.587891,156.208862 
	C2061.870117,156.334808 2062.691650,156.462280 2063.514893,156.577728 
	C2077.701660,158.566696 2084.757812,164.432449 2086.806396,175.941299 
	C2089.040039,188.488724 2084.445801,196.931793 2072.316895,203.322586 
	C2078.456543,214.918030 2084.596924,226.514908 2090.737305,238.111786 
	C2090.340576,238.578369 2089.943604,239.044952 2089.546631,239.511536 
	C2084.800293,239.511536 2080.037354,239.724579 2075.318848,239.362183 
	C2074.134766,239.271240 2072.742676,237.520447 2072.042236,236.213043 
	C2067.957031,228.588699 2063.777832,220.993576 2060.179443,213.137054 
	C2057.892822,208.144272 2054.670410,206.030670 2049.283447,206.767883 
	C2047.177368,207.056061 2044.999023,206.815018 2042.307617,206.815018 
	C2042.307617,217.757339 2042.307617,228.353302 2042.307617,239.249969 
	C2036.678833,239.249969 2031.596436,239.249969 2026.019409,239.249969 
	C2026.019409,221.902237 2025.998169,204.791641 2026.028198,187.681107 
	C2026.044067,178.687347 2026.314941,169.690414 2026.132446,160.701782 
	C2026.060791,157.173859 2027.150635,156.044479 2030.647095,156.112350 
	C2040.471069,156.303040 2050.300781,156.195007 2060.587891,156.208862 
M2048.576660,168.745728 
	C2046.627563,168.745728 2044.678345,168.745728 2042.593750,168.745728 
	C2042.593750,177.590591 2042.593750,185.911407 2042.593750,194.598831 
	C2048.111572,194.598831 2053.256592,194.960724 2058.329834,194.514008 
	C2065.937012,193.844177 2070.472168,189.130981 2070.575684,182.587860 
	C2070.698242,174.845917 2067.086670,170.555801 2058.943115,169.250854 
	C2055.863281,168.757324 2052.682373,168.894165 2048.576660,168.745728 
z"/>
<path fill="#F6F7F6" opacity="1.000000" stroke="none" 
	d="
M2049.062012,168.744690 
	C2052.682373,168.894165 2055.863281,168.757324 2058.943115,169.250854 
	C2067.086670,170.555801 2070.698242,174.845917 2070.575684,182.587860 
	C2070.472168,189.130981 2065.937012,193.844177 2058.329834,194.514008 
	C2053.256592,194.960724 2048.111572,194.598831 2042.593750,194.598831 
	C2042.593750,185.911407 2042.593750,177.590591 2042.593750,168.745728 
	C2044.678345,168.745728 2046.627563,168.745728 2049.062012,168.744690 
z"/>
</svg>